<svg width="487" height="487" viewBox="0 0 487 487" fill="none" xmlns="http://www.w3.org/2000/svg">
<path d="M293.945 63.7767C299.124 65.2335 303.513 68.6875 306.146 73.3792C308.779 78.071 309.441 83.6165 307.987 88.7963L218.095 409.161C217.375 411.727 216.157 414.127 214.511 416.222C212.864 418.318 210.821 420.068 208.497 421.374C206.174 422.68 203.616 423.515 200.97 423.832C198.324 424.15 195.641 423.943 193.075 423.223C190.509 422.504 188.11 421.286 186.014 419.639C183.919 417.992 182.168 415.949 180.862 413.626C179.557 411.303 178.721 408.745 178.404 406.099C178.087 403.453 178.294 400.77 179.013 398.204L268.905 77.8388C269.624 75.2703 270.843 72.8687 272.491 70.7714C274.139 68.6742 276.184 66.9224 278.51 65.6163C280.835 64.3103 283.396 63.4755 286.044 63.1599C288.693 62.8442 291.378 63.0538 293.945 63.7767ZM146.242 72.0563C150.046 75.8615 152.183 81.0218 152.183 86.4025C152.183 91.7831 150.046 96.9434 146.242 100.749L74.511 172.5L146.242 244.231C148.127 246.115 149.623 248.352 150.644 250.814C151.665 253.276 152.191 255.915 152.192 258.58C152.193 261.245 151.669 263.885 150.649 266.348C149.63 268.81 148.136 271.048 146.252 272.934C144.368 274.819 142.131 276.315 139.669 277.336C137.207 278.356 134.568 278.882 131.903 278.883C129.238 278.884 126.598 278.36 124.136 277.341C121.673 276.322 119.435 274.828 117.55 272.944L31.4521 186.846C27.648 183.041 25.511 177.881 25.511 172.5C25.511 167.119 27.648 161.959 31.4521 158.154L117.55 72.0563C121.355 68.2522 126.515 66.1151 131.896 66.1151C137.276 66.1151 142.437 68.2522 146.242 72.0563ZM340.758 246.749C338.82 244.877 337.274 242.638 336.211 240.162C335.147 237.686 334.587 235.024 334.564 232.329C334.541 229.635 335.054 226.963 336.074 224.469C337.095 221.976 338.601 219.71 340.506 217.805C342.412 215.899 344.677 214.393 347.171 213.372C349.665 212.352 352.337 211.839 355.031 211.862C357.725 211.886 360.388 212.445 362.864 213.509C365.339 214.572 367.579 216.118 369.45 218.056L455.548 304.154C459.352 307.959 461.489 313.119 461.489 318.5C461.489 323.881 459.352 329.041 455.548 332.846L369.45 418.923C365.623 422.62 360.498 424.665 355.177 424.619C349.857 424.573 344.767 422.439 341.005 418.676C337.243 414.914 335.109 409.825 335.063 404.504C335.016 399.184 337.062 394.058 340.758 390.231L412.489 318.5L340.758 246.749Z" fill="black"/>
</svg>
